<svg width="30" height="30" viewBox="0 0 30 30" fill="none" xmlns="http://www.w3.org/2000/svg">
<path d="M14.9999 7.87119C11.0691 7.87119 7.87109 11.0692 7.87109 15C7.87109 18.9308 11.0691 22.1288 14.9999 22.1288C18.9307 22.1288 22.1287 18.9308 22.1287 15C22.1287 11.0692 18.9307 7.87119 14.9999 7.87119ZM14.9999 20.371C12.0383 20.371 9.62891 17.9616 9.62891 15C9.62891 12.0384 12.0383 9.629 14.9999 9.629C17.9615 9.629 20.3709 12.0384 20.3709 15C20.3709 17.9616 17.9615 20.371 14.9999 20.371Z" fill="#EF2B57"/>
<path d="M15.0012 11.0926C12.8466 11.0926 11.0938 12.8454 11.0938 15C11.0938 17.1546 12.8466 18.9074 15.0012 18.9074C17.1558 18.9074 18.9086 17.1546 18.9086 15C18.9086 12.8454 17.1557 11.0926 15.0012 11.0926ZM15.0012 17.1496C13.8159 17.1496 12.8516 16.1853 12.8516 15C12.8516 13.8147 13.8159 12.8504 15.0012 12.8504C16.1865 12.8504 17.1508 13.8147 17.1508 15C17.1508 16.1853 16.1865 17.1496 15.0012 17.1496Z" fill="#EF2B57"/>
<path d="M27.3077 14.1211C26.8759 8.01621 21.9838 3.1241 15.8789 2.69232V0H14.1211V2.69232C8.01621 3.1241 3.1241 8.01621 2.69232 14.1211H0V15.8789H2.69232C3.1241 21.9838 8.01621 26.8759 14.1211 27.3077V30H15.8789V27.3077C21.9838 26.8759 26.8759 21.9838 27.3077 15.8789H30V14.1211H27.3077ZM25.5447 15.8789C25.1204 21.0139 21.0139 25.1204 15.8789 25.5447V24.1279H14.1211V25.5447C8.98605 25.1204 4.87957 21.0139 4.45529 15.8789H5.87215V14.1211H4.45529C4.87957 8.98605 8.98605 4.87957 14.1211 4.45529V5.87215H15.8789V4.45529C21.0139 4.87957 25.1204 8.98605 25.5447 14.1211H24.1279V15.8789H25.5447Z" fill="#EF2B57"/>
</svg>
