<svg width="40" height="40" viewBox="0 0 40 40" fill="none" xmlns="http://www.w3.org/2000/svg">
<path d="M2.00834 7.23404H6.02503V7.87231C6.02503 8.69522 6.5494 9.36153 7.19663 9.36153H15.1463C15.7936 9.36153 16.3178 8.69522 16.3178 7.87231V7.23404H37.9916C39.1009 7.23404 39.9999 6.09029 39.9999 4.68076C39.9999 3.27124 39.101 2.12769 37.9916 2.12769H16.3178V1.48922C16.3178 0.666619 15.7935 0 15.1463 0H7.19671C6.54948 0 6.02512 0.666722 6.02512 1.48922V2.12769H2.00843C0.89895 2.12769 0 3.27124 0 4.68076C0 6.09029 0.89895 7.23404 2.00834 7.23404Z" fill="white"/>
<path d="M37.9917 17.4468H30.3766V16.8085C30.3766 15.9858 29.8522 15.3193 29.205 15.3193H21.2552C20.608 15.3193 20.0837 15.9858 20.0837 16.8085V17.4468H2.00834C0.89895 17.4468 0 18.5905 0 20C0 21.4098 0.89895 22.5533 2.00834 22.5533H20.0837V23.1916C20.0837 24.0143 20.608 24.6808 21.2552 24.6808H29.205C29.8522 24.6808 30.3766 24.0143 30.3766 23.1916V22.5533H37.9917C39.101 22.5533 40 21.4098 40 20C40 18.5905 39.101 17.4468 37.9917 17.4468Z" fill="white"/>
<path d="M37.9917 32.7662H21.4644V32.1277C21.4644 31.305 20.94 30.6385 20.2929 30.6385H12.3431C11.6959 30.6385 11.1716 31.305 11.1716 32.1277V32.7662H2.00834C0.89895 32.7662 0 33.9097 0 35.3193C0 36.7288 0.89895 37.8725 2.00834 37.8725H11.1716V38.5108C11.1716 39.3335 11.6958 40 12.3431 40H20.2929C20.9401 40 21.4644 39.3335 21.4644 38.5108V37.8725H37.9917C39.101 37.8725 40 36.7288 40 35.3193C40 33.9097 39.101 32.7662 37.9917 32.7662Z" fill="white"/>
</svg>
