<svg width="40" height="40" viewBox="0 0 40 40" fill="none" xmlns="http://www.w3.org/2000/svg">
<path d="M37.1875 0H2.81248C1.25952 0 0 1.2592 0 2.81248V37.1875C0 38.7408 1.25952 40 2.81248 40H37.1875C38.7408 40 40 38.7408 40 37.1875V2.81248C40 1.2592 38.7408 0 37.1875 0ZM9.7712 31.8099C8.21984 31.8099 6.95808 30.5478 6.95808 28.9962C6.95808 27.4451 8.21984 26.183 9.7712 26.183C11.3226 26.183 12.585 27.4451 12.585 28.9962C12.585 30.5478 11.3226 31.8099 9.7712 31.8099ZM9.7712 23.3725C8.21984 23.3725 6.95808 22.1104 6.95808 20.5587C6.95808 19.0077 8.21984 17.7456 9.7712 17.7456C11.3226 17.7456 12.585 19.0077 12.585 20.5587C12.585 22.1104 11.3226 23.3725 9.7712 23.3725ZM9.7712 14.935C8.21984 14.935 6.95808 13.673 6.95808 12.1213C6.95808 10.5702 8.21984 9.30816 9.7712 9.30816C11.3226 9.30816 12.585 10.5702 12.585 12.1213C12.585 13.673 11.3226 14.935 9.7712 14.935ZM33.5459 30H17.2768C16.759 30 16.3392 29.5802 16.3392 29.0624C16.3392 28.5443 16.759 28.1248 17.2768 28.1248H33.5459C34.0637 28.1248 34.4835 28.5443 34.4835 29.0624C34.4835 29.5802 34.0637 30 33.5459 30ZM33.5459 21.5626H17.2768C16.759 21.5626 16.3392 21.1427 16.3392 20.625C16.3392 20.1069 16.759 19.6874 17.2768 19.6874H33.5459C34.0637 19.6874 34.4835 20.1069 34.4835 20.625C34.4835 21.1424 34.0637 21.5626 33.5459 21.5626ZM33.5459 13.1251H17.2768C16.759 13.1251 16.3392 12.7053 16.3392 12.1875C16.3392 11.6694 16.759 11.2499 17.2768 11.2499H33.5459C34.0637 11.2499 34.4835 11.6694 34.4835 12.1875C34.4835 12.705 34.0637 13.1251 33.5459 13.1251Z" fill="white"/>
</svg>
