<svg width="49" height="88" viewBox="0 0 49 88" fill="none" xmlns="http://www.w3.org/2000/svg">
<path d="M46.3209 47.9512C48.9512 40.6674 48.3442 35.8116 46.3209 32.5744C51.3791 18.614 44.7023 13.9605 38.0256 10.1163C34.3837 8.09302 32.1581 6.06977 31.1465 4.45116C29.9326 3.03488 29.3256 1.6186 28.9209 0H27.5047V28.7302V33.9907V35.0023V36.8233V65.7558C23.6605 62.7209 16.9837 62.7209 10.7116 66.1605C3.02326 70.207 -0.820926 77.693 1.80931 82.7512C4.43954 87.8093 12.9372 88.6186 20.4233 84.5721C26.2907 81.3349 29.9326 76.2767 30.1349 71.8256V42.893V41.6791C33.3721 45.9279 41.4651 48.1535 44.2977 52.807C47.1302 57.6628 45.3093 65.1488 45.3093 65.1488C48.9512 56.8535 48.5465 51.593 46.3209 47.9512ZM30.3372 10.7233C33.5744 14.9721 41.6674 17.1977 44.5 21.8512C46.3209 25.0884 46.3209 29.3372 45.9163 31.9674C43.893 29.1349 41.0605 27.1116 38.0256 25.493C33.3721 22.8628 31.3488 20.2326 30.3372 18.614V10.7233ZM45.9163 47.3442C43.893 44.714 40.8581 42.6907 37.8233 41.0721C33.1698 38.4419 31.1465 35.8116 30.1349 34.193V32.7767V26.3023C33.3721 30.5512 41.4651 32.7767 44.2977 37.4302C46.3209 40.4651 46.3209 44.714 45.9163 47.3442Z" fill="#DB132C"/>
</svg>
