<svg width="48" height="87" viewBox="0 0 48 87" fill="none" xmlns="http://www.w3.org/2000/svg">
<path d="M45.4054 32.5744C50.473 18.614 43.7838 13.9605 37.0946 10.1163C33.446 8.09302 31.2162 6.06977 30.2027 4.45116C28.9865 3.03488 28.3784 1.6186 27.973 0H26.5541V65.5535C22.7027 62.7209 16.0135 62.7209 9.72976 66.1605C2.02706 70.207 -1.82429 77.693 0.810844 82.7512C3.44598 87.8093 11.9595 88.6186 19.4595 84.5721C25.3379 81.3349 28.9865 76.2767 29.1892 71.8256V26.3023C32.4325 30.5512 40.5406 32.7767 43.3784 37.4302C46.2162 42.286 44.3919 49.7721 44.3919 49.7721C48.0406 41.4767 47.6352 36.2163 45.4054 32.5744ZM45 31.9674C42.973 29.1349 40.1352 27.1116 37.0946 25.493C32.4325 22.8628 30.4054 20.2326 29.3919 18.614V10.7233C32.6352 14.9721 40.7433 17.1977 43.5811 21.8512C45.4054 25.0884 45.4054 29.3372 45 31.9674Z" fill="#DB132C"/>
</svg>
