<svg width="57" height="78" viewBox="0 0 57 78" fill="none" xmlns="http://www.w3.org/2000/svg">
<path d="M56.5427 2.89963L56.6877 0L19.2825 15.658H18.9925V62.632C16.3829 60.6022 11.4535 60.6022 6.95908 62.9219C1.44978 65.8216 -1.30486 71.1859 0.579895 74.8104C2.46465 78.4349 8.55387 79.0149 13.9182 76.1152C18.1226 73.7955 20.7323 70.171 20.8773 66.9814V17.1078L54.513 3.76952V49.2937C51.9033 47.2639 46.9739 47.2639 42.4795 49.5836C36.9702 52.4833 34.2156 57.8476 36.1003 61.4721C37.9851 65.0967 44.0743 65.6766 49.4386 62.7769C53.6431 60.4572 56.2528 56.8327 56.3977 53.6431V2.89963H56.5427Z" fill="#DB132C"/>
</svg>
