<svg width="47" height="87" viewBox="0 0 47 87" fill="none" xmlns="http://www.w3.org/2000/svg">
<path d="M37.0738 10.1162C33.4272 8.0929 31.1988 6.06965 30.1859 4.45104C28.9703 3.03476 28.3626 1.61848 27.9574 -0.00012207H26.5393V65.5534C22.6902 62.7208 16.0048 62.7208 9.72465 66.1603C2.02638 70.2069 -1.82276 77.6929 0.810857 82.751C3.44448 87.8092 11.9531 88.6185 19.4488 84.572C25.3238 81.3348 28.9703 76.2766 29.1729 71.8255V10.7231C32.4143 14.972 40.5177 17.1976 43.354 21.851C46.3927 26.9092 44.5695 34.3952 44.5695 34.3952C50.8496 19.0185 43.9617 13.9603 37.0738 10.1162Z" fill="#DB132C"/>
</svg>
