<svg width="47" height="40" viewBox="0 0 47 40" fill="none" xmlns="http://www.w3.org/2000/svg">
<path d="M28.3001 6.86548C30.4684 8.24344 31.9889 10.5752 32.2657 13.2819C33.1501 13.7007 34.1315 13.9415 35.1721 13.9415C38.971 13.9415 42.0501 10.8208 42.0501 6.97107C42.0501 3.12073 38.971 0 35.1721 0C31.4095 0.00118636 28.3574 3.06616 28.3001 6.86548ZM23.7942 21.1386C27.5931 21.1386 30.6721 18.0173 30.6721 14.1675C30.6721 10.3178 27.5925 7.19707 23.7942 7.19707C19.9959 7.19707 16.9151 10.3184 16.9151 14.1681C16.9151 18.0179 19.9959 21.1386 23.7942 21.1386ZM26.7117 21.6138H20.8755C16.0196 21.6138 12.0691 25.6183 12.0691 30.5399V37.7738L12.0873 37.8871L12.5789 38.0431C17.213 39.5106 21.2389 40 24.5527 40C31.025 40 34.7765 38.1297 35.0077 38.0105L35.4671 37.775H35.5163V30.5399C35.518 25.6183 31.5675 21.6138 26.7117 21.6138ZM38.0908 14.4173H32.2997C32.2371 16.7657 31.248 18.8804 29.6836 20.4013C33.9999 21.7021 37.1579 25.7589 37.1579 30.5506V32.7798C42.8759 32.5674 46.1708 30.9249 46.388 30.8146L46.8474 30.5785H46.8966V23.3423C46.8966 18.4212 42.9461 14.4173 38.0908 14.4173ZM11.7256 13.9427C13.0711 13.9427 14.323 13.5447 15.3835 12.8667C15.7206 10.6381 16.8993 8.6907 18.583 7.36435C18.5901 7.23385 18.6024 7.10453 18.6024 6.97285C18.6024 3.12251 15.5227 0.00177942 11.7256 0.00177942C7.92612 0.00177942 4.84767 3.12251 4.84767 6.97285C4.84767 10.8214 7.92612 13.9427 11.7256 13.9427ZM17.9024 20.4013C16.3456 18.8881 15.36 16.7847 15.2881 14.4505C15.0733 14.4345 14.8608 14.4173 14.6419 14.4173H8.80635C3.95048 14.4173 0 18.4212 0 23.3423V30.5773L0.0181429 30.6888L0.509758 30.846C4.2273 32.0223 7.54512 32.5645 10.4269 32.7353V30.5506C10.4281 25.7589 13.585 21.7033 17.9024 20.4013Z" fill="white"/>
</svg>
